#!OML:ASF F:\VICON\USERDATA\INSTALL\SteveWalk\SteveWalk.ASF
:FULLY-SPECIFIED
:DEGREES
377
root 0.080098 16.0628 37.6515 17.9113 5.96793 -1.79448
lowerback -16.2754 -1.04964 2.97849
upperback -5.30139 -1.98777 3.18673
thorax 3.48614 -0.971015 1.29591
lowerneck -4.5232 -0.402327 -0.0131903
upperneck 6.79545 -0.277893 -3.53947
head 2.95923 -0.263863 -1.15467
rclavicle 3.16037e-014 -7.95139e-015
rhumerus -73.4818 -50.0957 -20.0883
rradius 11.8875
rwrist 46.1736
rhand -18.1952 -33.5934
rfingers 7.12502
rthumb 8.08196 -63.4188
lclavicle 3.16037e-014 -7.95139e-015
lhumerus -28.336 1.1476 87.448
lradius 47.3652
lwrist 4.82214
lhand -21.6964 -20.59
lfingers 7.12502
lthumb 4.70189 9.33784
rfemur -39.9182 -0.328629 26.2758
rtibia 37.9719
rfoot -16.3419 5.5031
rtoes -3.66488
lfemur -30.1992 2.43816 -17.7974
ltibia 75.0621
lfoot 12.6455 -4.30491
ltoes -3.35747
378
root 0.0702951 16.0881 37.8409 17.8917 5.43425 -1.09924
lowerback -15.6831 -1.02493 2.05535
upperback -5.74394 -1.75862 2.93096
thorax 2.72403 -0.862032 1.60364
lowerneck -4.12909 -0.336906 0.248767
upperneck 7.44141 -0.186109 -3.63464
head 3.10779 -0.218148 -1.23256
rclavicle 1.44305e-014 3.97569e-015
rhumerus -69.7658 -49.4349 -25.0136
rradius 12.1321
rwrist 43.9032
rhand -18.2686 -33.4825
rfingers 7.12502
rthumb 8.01114 -63.3107
lclavicle 1.44305e-014 3.97569e-015
lhumerus -29.705 1.29267 87.6014
lradius 44.9843
lwrist 6.07844
lhand -22.3542 -21.8565
lfingers 7.12502
lthumb 4.06678 8.0844
rfemur -38.8233 0.188445 25.3935
rtibia 37.4609
rfoot -16.6244 5.06046
rtoes -5.77995
lfemur -31.7529 2.64016 -18.7496
ltibia 75.5917
lfoot 11.0288 -3.19963
ltoes -1.53099
379
root 0.0592531 16.0925 38.036 17.7809 4.99284 -0.957857
lowerback -15.5478 -0.870661 1.65949
upperback -5.89082 -1.48362 2.83992
thorax 2.50119 -0.723769 1.78306
lowerneck -3.95219 -0.385231 0.206381
upperneck 8.04275 -0.239964 -3.52497
head 3.27875 -0.246784 -1.19679
rclavicle -1.49213e-014 -7.95139e-016
rhumerus -65.9365 -48.9488 -29.8691
rradius 12.365
rwrist 41.5199
rhand -18.5165 -33.2972
rfingers 7.12502
rthumb 7.77179 -63.1343
lclavicle -1.49213e-014 -7.95139e-016
lhumerus -30.6449 2.09173 87.5097
lradius 42.7073
lwrist 4.9528
lhand -21.7503 -21.6059
lfingers 7.12502
lthumb 4.64987 8.32311
rfemur -37.8427 0.831239 25.1381
rtibia 37.2997
rfoot -17.0941 4.61092
rtoes -7.12613
lfemur -33.2489 3.04753 -19.0629
ltibia 76.0182
lfoot 9.45855 -2.60484
ltoes -1.31402
380
root 0.086091 16.1416 38.2362 17.3238 5.75831 -1.80871
lowerback -15.5532 -0.78167 2.99148
upperback -5.62264 -1.57541 2.96237
thorax 2.75363 -0.776549 1.14177
lowerneck -4.27731 -0.511334 0.0383735
upperneck 8.4641 -0.390268 -3.41945
head 3.48361 -0.329645 -1.14642
rclavicle -5.97596e-015 -3.18055e-015
rhumerus -59.483 -47.3529 -37.909
rradius 12.712
rwrist 36.8467
rhand -18.642 -33.5835
rfingers 7.12502
rthumb 7.65068 -63.4251
lclavicle -5.97596e-015 -3.18055e-015
lhumerus -31.0549 3.14834 87.4163
lradius 40.4888
lwrist 3.65175
lhand -21.1705 -20.9095
lfingers 7.12502
lthumb 5.20971 9.00645
rfemur -36.2336 -0.117092 26.3483
rtibia 36.9073
rfoot -17.9864 5.02771
rtoes -6.27432
lfemur -34.1955 2.72755 -18.149
ltibia 76.0595
lfoot 7.6385 -2.35317
ltoes -3.49768
